<svg id="Layer_5" enable-background="new 0 0 64 64" height="512" viewBox="0 0 64 64" width="512" xmlns="http://www.w3.org/2000/svg"><g><path d="m32.935 7.031.131-1.996c-1.414-.092-2.888.003-4.267.287l.402 1.959c1.207-.248 2.499-.33 3.734-.25z"/><path d="m32 24c1.593 0 4-1.196 4-3l-2-.003c-.044.323-1.18 1.003-2 1.003s-1.956-.68-2-1h-2c0 1.804 2.407 3 4 3z"/><path d="m46.355 32.324c-.684-.954-1.553-1.779-2.585-2.397-.941-.563-1.968-.94-3.05-1.12l-3.843-.639-.257-1.648c1.855-1.319 3.127-3.404 3.343-5.793 2.564-1.705 4.037-4.125 4.037-6.727 0-1.826-.72-3.548-2-4.993 0-.003 0-.005 0-.007 0-4.411-4.486-8-10-8s-10 3.589-10 8v.006c-1.28 1.446-2 3.168-2 4.994 0 2.602 1.473 5.022 4.037 6.726.216 2.387 1.485 4.47 3.338 5.789l-.251 1.617-3.844.641c-1.083.181-2.108.559-3.05 1.123-1.042.625-1.918 1.464-2.604 2.433-10.416 2.05-16.626 6.025-16.626 10.671 0 11.028 8.972 20 20 20h22c11.028 0 20-8.972 20-20 0-4.651-6.218-8.627-16.645-10.676zm10.645 10.676c0 2.506-9.511 6-25 6s-25-3.494-25-6c0-1.31 2.797-3.164 9-4.494v4.095c-1.313-.579-2-1.158-2-1.601h-2c0 3.939 10.062 6 20 6s20-2.061 20-6h-2c0 .442-.687 1.021-2 1.601v-4.095c6.203 1.331 9 3.184 9 4.494zm-33-26.146v1.325c-1.286-1.202-2-2.662-2-4.179 0-2.592 2.05-4.964 5.349-6.19l-.697-1.875c-.783.291-1.508.64-2.171 1.036 1.112-2.311 4.058-3.971 7.519-3.971s6.407 1.66 7.519 3.972c-.663-.397-1.388-.746-2.171-1.037l-.697 1.875c3.299 1.227 5.349 3.598 5.349 6.19 0 1.517-.713 2.978-2 4.179v-5.179h-1.674c-2.021 0-4.046-.478-5.854-1.382-.808-.404-1.713-.618-2.618-.618-3.228 0-5.854 2.626-5.854 5.854zm2 3.146v-3.146c0-2.125 1.729-3.854 3.854-3.854.595 0 1.191.141 1.724.407 1.987.993 4.2 1.541 6.422 1.589v5.004c0 3.309-2.691 6-6 6s-6-2.691-6-6zm-4.741 11.611c.725-.435 1.516-.726 2.35-.865l5.269-.878.368-2.367c.86.317 1.785.499 2.754.499.967 0 1.89-.181 2.748-.497l.375 2.402 5.269.875c.834.139 1.625.429 2.351.863 2.009 1.203 3.257 3.402 3.257 5.738v5.94c-1.11.335-2.446.647-4 .91v-6.231h-2v6.528c-2.298.29-4.964.472-8 .472s-5.702-.182-8-.472v-6.528h-2v6.232c-1.554-.264-2.89-.576-4-.91v-5.955c0-2.346 1.249-4.551 3.259-5.756zm21.741 29.389h-22c-8.192 0-15.11-5.506-17.281-13.008 4.809 4.169 15.527 7.008 28.281 7.008s23.472-2.839 28.281-7.008c-2.171 7.502-9.089 13.008-17.281 13.008zm-11-8c-17.347 0-29-5.171-29-10 0-3.31 5.225-6.521 13.47-8.385-.199.593-.341 1.206-.409 1.835-4.444.914-11.061 2.888-11.061 6.55 0 5.252 13.583 8 27 8s27-2.748 27-8c0-3.662-6.619-5.637-11.062-6.551-.069-.629-.214-1.241-.415-1.834 8.136 1.853 13.477 5.128 13.477 8.385 0 4.829-11.653 10-29 10z"/><path d="m49 27h2c0-1 .336-1.448.8-2.067.535-.713 1.2-1.601 1.2-3.267 0-1.667-.665-2.554-1.2-3.268-.464-.619-.8-1.067-.8-2.067s.336-1.446.8-2.065c.535-.712 1.2-1.6 1.2-3.266h-2c0 1-.336 1.446-.8 2.065-.535.712-1.2 1.6-1.2 3.266 0 1.667.665 2.554 1.2 3.267.464.619.8 1.067.8 2.067s-.336 1.448-.8 2.067c-.535.714-1.2 1.601-1.2 3.268z"/><path d="m56 17h2c0-1 .336-1.448.8-2.067.535-.713 1.2-1.601 1.2-3.267 0-1.667-.665-2.554-1.2-3.268-.464-.619-.8-1.067-.8-2.067s.336-1.446.8-2.065c.535-.713 1.2-1.6 1.2-3.266h-2c0 1-.336 1.446-.8 2.065-.535.712-1.2 1.6-1.2 3.266 0 1.667.665 2.554 1.2 3.267.464.619.8 1.067.8 2.067s-.336 1.448-.8 2.067c-.535.714-1.2 1.601-1.2 3.268z"/><path d="m61 23.331c0-1 .336-1.446.8-2.065.535-.712 1.2-1.6 1.2-3.266h-2c0 1-.336 1.446-.8 2.065-.535.712-1.2 1.6-1.2 3.266 0 1.667.665 2.554 1.2 3.267.464.619.8 1.067.8 2.067s-.336 1.448-.8 2.067c-.535.714-1.2 1.601-1.2 3.268h2c0-1 .336-1.448.8-2.067.535-.713 1.2-1.601 1.2-3.267 0-1.667-.665-2.554-1.2-3.268-.464-.619-.8-1.067-.8-2.067z"/><path d="m11 21.666c0 1.667.665 2.554 1.2 3.267.464.619.8 1.067.8 2.067h2c0-1.667-.665-2.554-1.2-3.268-.464-.619-.8-1.067-.8-2.067s.336-1.448.8-2.067c.535-.713 1.2-1.601 1.2-3.267s-.665-2.553-1.2-3.266c-.464-.619-.8-1.065-.8-2.065h-2c0 1.666.665 2.553 1.2 3.266.464.619.8 1.066.8 2.065 0 1-.336 1.448-.8 2.067-.535.713-1.2 1.601-1.2 3.268z"/><path d="m4 11.666c0 1.667.665 2.554 1.2 3.267.464.619.8 1.067.8 2.067h2c0-1.667-.665-2.554-1.2-3.268-.464-.619-.8-1.066-.8-2.066s.336-1.448.8-2.067c.535-.714 1.2-1.601 1.2-3.268 0-1.666-.665-2.553-1.2-3.266-.464-.619-.8-1.065-.8-2.065h-2c0 1.666.665 2.553 1.2 3.266.464.619.8 1.066.8 2.065 0 1-.336 1.448-.8 2.067-.535.713-1.2 1.601-1.2 3.268z"/><path d="m1 28.666c0 1.667.665 2.554 1.2 3.267.464.619.8 1.067.8 2.067h2c0-1.667-.665-2.554-1.2-3.268-.464-.619-.8-1.066-.8-2.066s.336-1.448.8-2.067c.535-.714 1.2-1.601 1.2-3.268 0-1.666-.665-2.553-1.2-3.266-.464-.619-.8-1.065-.8-2.065h-2c0 1.666.665 2.553 1.2 3.266.464.619.8 1.066.8 2.065 0 1-.336 1.448-.8 2.067-.535.713-1.2 1.601-1.2 3.268z"/></g></svg>